<svg xmlns="http://www.w3.org/2000/svg" width="61.764" height="69"><defs><radialGradient id="a" cx="50.337" cy="34.164" r="76.058" gradientTransform="matrix(.727 0 0 .727 8.66 8.504)" gradientUnits="userSpaceOnUse"><stop offset="0" stop-color="#e4eeec"/><stop offset=".103" stop-color="#e0ecea"/><stop offset=".212" stop-color="#d3e8e4"/><stop offset=".322" stop-color="#bee0db"/><stop offset=".435" stop-color="#a1d4cd"/><stop offset=".549" stop-color="#7bc6bc"/><stop offset=".662" stop-color="#4db4a7"/><stop offset=".704" stop-color="#3aad9e"/></radialGradient><linearGradient id="b" x1=".098" y1=".917" x2=".522" y2=".18" gradientUnits="objectBoundingBox"><stop offset=".005" stop-color="#ef2369" stop-opacity=".4"/><stop offset="1" stop-color="#e4eeec" stop-opacity="0"/></linearGradient><linearGradient id="c" x1="-.028" y1=".398" x2=".832" y2=".626" gradientUnits="objectBoundingBox"><stop offset="0" stop-color="#8a1d42"/><stop offset=".168" stop-color="#ef2369"/><stop offset=".219" stop-color="#db2261"/><stop offset=".322" stop-color="#a81f4e"/><stop offset=".378" stop-color="#8a1d42"/><stop offset=".458" stop-color="#8e1d44"/><stop offset=".537" stop-color="#9a1e48"/><stop offset=".616" stop-color="#ae1f50"/><stop offset=".694" stop-color="#c9215a"/><stop offset=".771" stop-color="#ed2368"/><stop offset=".776" stop-color="#ef2369"/><stop offset=".823" stop-color="#eb236a"/><stop offset=".873" stop-color="#de246d"/><stop offset=".924" stop-color="#c92571"/><stop offset=".976" stop-color="#ab2778"/><stop offset="1" stop-color="#9b287b"/></linearGradient></defs><path d="M71.889 21.006c.024-.377.047-.753.047-1.153a16.841 16.841 0 0 0-31.752-7.838A9.827 9.827 0 0 0 27.238 23.29a12.635 12.635 0 0 0 4 24.62h35.096a14.024 14.024 0 0 0 5.555-26.9z" transform="translate(-18.6 -3)" fill="url(#a)"/><path d="M114.61 87.831l-11.11-4.1 1.553-34.431a2.993 2.993 0 0 1 4-2.683l23.185 8.426a3 3 0 0 1 1.459 4.5L114.61 87.831z" transform="translate(-83.516 -36.213)" fill="url(#b)"/><path d="M95.573 201.085c3.248 1.2 6.19 3.248 5.578 5.131l-.024.047-1.53 4.143a1.7 1.7 0 0 1-.965.989 3.647 3.647 0 0 1-1.295.282l-3.907 8.144a4.487 4.487 0 0 1-8.262.235 4.571 4.571 0 0 1-.141-3.437l2.283-8.638c-1.059-1.059-1.106-1.907-.894-2.448l1.553-4.213c.259-.636.989-1.342 3.036-1.247a16.608 16.608 0 0 1 4.568 1.012z" transform="translate(-69.187 -153.68)" fill="url(#c)"/><path d="M25.984 48.346c3.342 1.224 4.9 2.73 5.108 3.272-.494.282-2.66.4-6-.824s-4.9-2.73-5.108-3.272c.541-.258 2.683-.399 6 .824z" fill="#fff"/><path d="M30.081 57.691a1.372 1.372 0 0 1-1.177.918 16.173 16.173 0 0 1-6.214-1.224 17.084 17.084 0 0 1-5.484-3.036 1.385 1.385 0 0 1-.33-1.483l.824-2.26a8.8 8.8 0 0 0 .659.588 20.3 20.3 0 0 0 5.531 2.966 21.054 21.054 0 0 0 6.12 1.342h.894z" fill="#ee266a"/><path d="M20.643 58.632l-1.389 6 1.436.541 2.825-5.484z" fill="#fff"/></svg>