<svg xmlns="http://www.w3.org/2000/svg" xmlns:xlink="http://www.w3.org/1999/xlink" width="64.438" height="58.314"><defs><linearGradient id="b" x1=".273" y1="1.225" x2=".735" y2="-.252" gradientUnits="objectBoundingBox"><stop offset="0" stop-color="#e4eeec"/><stop offset="1" stop-color="#3aad9e"/></linearGradient><linearGradient id="c" y1=".5" x2="1" y2=".5" gradientUnits="objectBoundingBox"><stop offset="0" stop-color="#fff" stop-opacity="0"/><stop offset=".035" stop-color="#f6ebf1" stop-opacity=".027"/><stop offset=".127" stop-color="#e2bbd0" stop-opacity=".102"/><stop offset=".224" stop-color="#cf91b3" stop-opacity=".18"/><stop offset=".325" stop-color="#c06e9a" stop-opacity=".259"/><stop offset=".431" stop-color="#b45186" stop-opacity=".345"/><stop offset=".543" stop-color="#aa3b76" stop-opacity=".435"/><stop offset=".666" stop-color="#a32b6b" stop-opacity=".533"/><stop offset=".805" stop-color="#9f2265" stop-opacity=".643"/><stop offset="1" stop-color="#9e1f63" stop-opacity=".8"/></linearGradient><linearGradient id="d" y1=".5" x2="1" y2=".5" gradientUnits="objectBoundingBox"><stop offset=".108" stop-color="#126666"/><stop offset=".503" stop-color="#4bbfae"/><stop offset=".576" stop-color="#47b9a9"/><stop offset=".676" stop-color="#3ca79b"/><stop offset=".79" stop-color="#2a8b84"/><stop offset=".908" stop-color="#126666"/></linearGradient><radialGradient id="a" cx="5.351" cy="5.351" r="5.351" gradientUnits="userSpaceOnUse"><stop offset=".222" stop-color="#3aad9e"/><stop offset="1" stop-color="#126666"/></radialGradient><radialGradient id="e" cx="3.951" cy="3.951" r="3.951" xlink:href="#a"/><radialGradient id="f" cx="416.675" cy="134.681" r="6.167" gradientTransform="translate(-67.052 -22.331) scale(1.251)" gradientUnits="userSpaceOnUse"><stop offset="0" stop-color="#3aad9e"/><stop offset="1" stop-color="#123f66"/></radialGradient></defs><path d="M64.438 38.873c0-6.519-14.425-11.8-32.219-11.8S0 32.358 0 38.873a4.418 4.418 0 0 0 .037.53H0v7.11c0 6.519 14.425 11.8 32.219 11.8s32.219-5.285 32.219-11.8v-7.108h-.037a4.415 4.415 0 0 0 .037-.532z" fill="#4bbfae"/><ellipse cx="32.219" cy="11.803" rx="32.219" ry="11.803" transform="translate(0 27.07)" fill="url(#b)"/><path d="M150.663 208.066v7.634c17.794 0 32.219-5.285 32.219-11.8v-7.108h-.037c-.758 6.273-14.874 11.274-32.182 11.274z" transform="translate(-118.444 -157.39)" opacity=".4" fill="url(#c)"/><path d="M59.571 142.865a14.112 14.112 0 0 1-7.663 1.9 14.112 14.112 0 0 1-7.663-1.9v-8.278a7.663 7.663 0 1 1 15.326 0z" transform="translate(-35.617 -103.009)" fill="url(#d)"/><ellipse cx="2.168" cy="2.168" rx="2.168" ry="2.168" transform="translate(14.123 29.329)" fill="#e4eeec"/><path d="M13.657 17.661a5.33 5.33 0 0 1-6.839 3.284l2.53 7.4a7.628 7.628 0 0 1 8.624-4.244z" fill="#4bbfae"/><ellipse cx="5.351" cy="5.351" rx="5.351" ry="5.351" transform="translate(3.255 10.555)" fill="url(#a)"/><ellipse cx="3.951" cy="3.951" rx="3.951" ry="3.951" transform="translate(18.027)" fill="url(#e)"/><path d="M18.187 5.006l-7.511 5.959a5.356 5.356 0 0 1 3.2 3.946l7.049-7.166a3.934 3.934 0 0 1-2.738-2.739z" fill="#4bbfae"/><ellipse cx="1.755" cy="1.755" rx="1.755" ry="1.755" transform="translate(6.873 14.152)" fill="#e4eeec"/><path d="M25.909 4.144a3.933 3.933 0 0 1-1.793 3.121l7.689 4.082 1.3-2.109-7.2-5.094z" fill="#4bbfae"/><ellipse cx=".883" cy=".883" rx=".883" ry=".883" transform="translate(21.096 3.068)" fill="#e4eeec"/><path d="M26.392 44.344l6.222 3.592v-3.513l-6.222-3.592zm6.222.079v3.513l3.111-1.742v-3.513z" fill="#7bd6c7"/><path d="M26.392 40.831l6.222 3.592 3.111-1.742-6.222-3.592z" fill="#7bd6c7"/><path d="M35.725 42.681l-3.111 1.742-6.222-3.592 3.111-1.742z" fill="#ec297b" opacity=".2"/><path d="M32.614 47.936v-3.513l3.111-1.742v3.513z" fill="#471a37" opacity=".4"/><path d="M154.241 45.748l-6.813 3.934v9.18l6.813 3.934 6.813-3.934v-9.18z" transform="translate(-115.926 -39.829)" fill="url(#f)"/><path d="M38.315 22.967v-9.18l6.813-3.934v9.18z" fill="#471a37" opacity=".4"/><path d="M45.128 9.853l-6.813 3.934-6.813-3.934 6.813-3.934z" fill="#f073ab" opacity=".3"/><path d="M54 27.96l-4.436-2.561-4.436 2.561v9.048l4.436 2.561L54 37.008V27.96z" fill="#7bd6c7"/><path d="M49.561 39.569v-9.048l4.436-2.561v9.048z" fill="#471a37" opacity=".4"/><path d="M54 27.96l-4.436 2.561-4.436-2.561 4.436-2.561z" fill="#f073ab" opacity=".3"/></svg>