<svg xmlns="http://www.w3.org/2000/svg" xmlns:xlink="http://www.w3.org/1999/xlink" width="64.611" height="59.926"><defs><linearGradient id="b" x1=".623" y1="1.029" x2=".09" y2=".22" gradientUnits="objectBoundingBox"><stop offset="0" stop-color="#b3dbd5"/><stop offset=".513" stop-color="#e4eeec"/><stop offset=".686" stop-color="#e2edeb"/><stop offset=".781" stop-color="#daeae7"/><stop offset=".858" stop-color="#cce5e1"/><stop offset=".924" stop-color="#b8ddd8"/><stop offset=".984" stop-color="#9fd3cc"/><stop offset="1" stop-color="#97d0c8"/></linearGradient><radialGradient id="a" cx="18.546" cy="612.485" r="5.327" gradientTransform="translate(-3.495 -98.683) scale(1.251)" gradientUnits="userSpaceOnUse"><stop offset="0" stop-color="#3aad9e"/><stop offset="1" stop-color="#123f66"/></radialGradient><radialGradient id="c" cx="388.868" cy="234.002" r="10.414" gradientTransform="translate(-63.142 -38.76) scale(1.251)" xlink:href="#a"/></defs><path d="M65.9 123.739l-28.919-3.114-5.889-11.325 10.881-31.373z" transform="translate(-25.208 -64.096)" fill="url(#b)"/><path d="M53.106 23.665l-11.5 6.642v15.5l11.5 6.642 11.5-6.642v-15.5z" fill="#7bd6c7"/><path d="M53.102 52.454v-15.5l11.5-6.642v15.5z" fill="#471a37" opacity=".4"/><path d="M64.61 30.31l-11.5 6.642-11.5-6.642 11.5-6.642z" fill="#123f66" opacity=".3"/><path d="M28.27 23.835l-11.5 6.642v15.5l11.5 6.642 11.5-6.642V30.478z" fill="#7bd6c7"/><path d="M28.27 52.622v-15.5l11.5-6.642v15.5z" fill="#471a37" opacity=".4"/><path d="M39.774 30.478l-11.5 6.642-11.5-6.642 11.5-6.642z" fill="#123f66" opacity=".3"/><path d="M40.691 30.857l-11.5 6.642v15.5l11.5 6.642 11.5-6.642v-15.5z" fill="#7bd6c7"/><path d="M40.687 59.643v-15.5l11.5-6.642v15.5z" fill="#471a37" opacity=".4"/><path d="M52.191 37.499l-11.5 6.642-11.5-6.642 11.5-6.642z" fill="#123f66" opacity=".3"/><path d="M10.433 219.444l-5.884 3.4v7.929l5.884 3.4 5.884-3.4v-7.929z" transform="translate(-4.549 -174.241)" fill="url(#a)"/><path d="M5.884 59.926v-7.929l5.884-3.4v7.934z" fill="#471a37" opacity=".4"/><path d="M11.768 48.6L5.884 52 0 48.6l5.884-3.4z" fill="#f073ab" opacity=".3"/><path d="M40.691 0l-11.5 6.642v15.5l11.5 6.642 11.5-6.642v-15.5z" fill="#7bd6c7"/><path d="M40.687 28.786v-15.5l11.5-6.642v15.497z" fill="#471a37" opacity=".4"/><path d="M52.191 6.642l-11.5 6.642-11.5-6.642L40.691 0z" fill="#123f66" opacity=".3"/><path d="M53.105 7.021l-11.5 6.642v15.5l11.499 6.648 11.5-6.642v-15.5z" fill="#7bd6c7"/><path d="M53.102 35.807v-15.5l11.5-6.642v15.5z" fill="#471a37" opacity=".4"/><path d="M64.609 13.663l-11.5 6.642-11.5-6.642 11.5-6.642z" fill="#123f66" opacity=".3"/><path d="M28.27 7.189l-11.5 6.642v15.5l11.5 6.642 11.5-6.642v-15.5z" fill="#7bd6c7"/><path d="M28.27 35.975v-15.5l11.5-6.642v15.5z" fill="#471a37" opacity=".4"/><path d="M39.774 13.831l-11.5 6.642-11.5-6.642 11.5-6.642z" fill="#123f66" opacity=".3"/><path d="M147.7 79.637l-11.5 6.642v15.5l11.5 6.642 11.5-6.642v-15.5z" transform="translate(-107.009 -65.427)" fill="url(#c)"/><path d="M40.687 42.996v-15.5l11.5-6.642v15.5z" fill="#471a37" opacity=".4"/><path d="M52.191 20.852l-11.5 6.642-11.5-6.642 11.5-6.642z" fill="#123f66" opacity=".3"/></svg>