<svg xmlns="http://www.w3.org/2000/svg" width="66.128" height="41.172"><defs><radialGradient id="a" cx="58.646" cy="60.147" r="21.92" gradientTransform="matrix(.955 0 0 .955 .201 .104)" gradientUnits="userSpaceOnUse"><stop offset="0" stop-color="#e4eeec"/><stop offset="1" stop-color="#3aad9e"/></radialGradient></defs><path d="M96.636 75.1c-.038-.195-.088-.385-.131-.578-.112-.5-.234-.994-.381-1.479-.041-.136-.087-.27-.131-.4a23.11 23.11 0 0 0-.6-1.64l-.07-.166a21.534 21.534 0 0 0-11.347-11.319l-.036-.018q-.9-.377-1.826-.67l-.213-.068q-.863-.262-1.746-.45c-.1-.022-.2-.049-.307-.069a20.87 20.87 0 0 0-1.8-.275c-.094-.01-.187-.029-.281-.038q-1.054-.105-2.114-.107c-.117 0-.232.014-.349.016a21.7 21.7 0 0 0-1.661.084c-.36.034-.713.092-1.068.143-.293.042-.588.08-.877.134-.41.077-.813.173-1.215.274-.218.054-.437.107-.653.168q-.651.185-1.289.412a20.02 20.02 0 0 0-.485.178q-.686.259-1.352.565c-.1.046-.2.095-.293.142a21.336 21.336 0 0 0-11.755 15.444 1.1 1.1 0 0 1-.118.322 21.232 21.232 0 0 0 12.225 23.027l4.857-12.345a8.2 8.2 0 1 1 8.027 0L84.5 98.732A21.383 21.383 0 0 0 96.636 75.1zm-22-13.255a17.246 17.246 0 0 0-15.093 13.702 1.118 1.118 0 0 1-1.093.893 1.154 1.154 0 0 1-.227-.023 1.118 1.118 0 0 1-.87-1.32A19.477 19.477 0 0 1 74.4 59.617a1.138 1.138 0 0 1 1.231.992 1.119 1.119 0 0 1-.996 1.231z" transform="translate(-42.578 -57.826)" fill="url(#a)"/><path d="M11.358 41.173a11.348 11.348 0 0 1-1.77-22.559 23.75 23.75 0 0 0-.18 2.8 23.491 23.491 0 0 0 10.661 19.763zm43.411 0h-8.726a23.439 23.439 0 0 0 10.48-22.562 11.348 11.348 0 0 1-1.755 22.562z" fill="#126666"/></svg>