<svg xmlns="http://www.w3.org/2000/svg" viewBox="0 0 196 21.666"><defs><style>.a{fill:#fff}</style></defs><path class="a" d="M71.309 9.394L64.374.25h-3.208v21.17h2.961V4.728l7.182 9.484 7.229-9.484V21.42h2.961V.25h-3.207zM85.94.25h2.96v21.17h-2.96zm21.476 10.53a6.006 6.006 0 0 0 1.36-4.13 5.766 5.766 0 0 0-2.038-4.739A8.586 8.586 0 0 0 101.152.25h-7.811v21.169h2.96V13.36h4.759l5.114 8.059h3.487l-5.627-8.535a6.918 6.918 0 0 0 3.386-2.1zm-6.392-.179h-4.727V2.853h4.6q4.913 0 4.913 3.89a3.892 3.892 0 0 1-1.015 2.786q-1.015 1.074-3.774 1.073zM119.593.25l-8.447 21.17h3.175l2.278-5.936h8.835l2.278 5.936h3.178L122.473.25zm-1.938 12.475l3.366-8.788 3.365 8.787zm30.662 4.372L136.477.25h-3.364v21.17h2.961V4.464l11.933 16.956h3.27V.25h-2.96zm6.36-14.089h7.1V21.42h2.961V3.008h7.143V.25h-17.2zM175.282.25h2.96v21.17h-2.96zm19.879 12.551a5.747 5.747 0 0 0-2.079-2.018 26.249 26.249 0 0 0-2.714-1.3q-1.474-.611-2.711-.994a6.657 6.657 0 0 1-2.08-1.025 1.858 1.858 0 0 1-.843-1.5q0-3.208 4.795-3.208a9.661 9.661 0 0 1 5.1 1.408V1.29a12.154 12.154 0 0 0-5.457-1.289q-3.785 0-5.593 1.741a5.652 5.652 0 0 0-1.809 4.225 4.546 4.546 0 0 0 .841 2.769 5.066 5.066 0 0 0 2.075 1.681q1.237.54 2.721 1.056l2.723.924a4.806 4.806 0 0 1 2.073 1.314 3.122 3.122 0 0 1 .835 2.191q-.014 3-4.95 3a11.455 11.455 0 0 1-6.036-1.8v3.042a14.282 14.282 0 0 0 6.3 1.517 9.167 9.167 0 0 0 5.614-1.526 5 5 0 0 0 2.033-4.237 5.687 5.687 0 0 0-.838-3.097zm-158.967-.418a15.169 15.169 0 0 1-3.33-2.091c-2.278 1.264-4.528 2.589-6.776 3.832q-.781.431-1.558.827a22.524 22.524 0 0 0 1.907 1.288c8.472 5.076 20.149 2.287 27.018-4.372-5.216 3.211-11.8 2.916-17.261.516z"/><path class="a" d="M50.371 3.624a39.76 39.76 0 0 0-20.357 4.231 33.75 33.75 0 0 0-1.535-1.269 17.678 17.678 0 0 0-9.673-3.75A25.171 25.171 0 0 0 0 9.795a17.964 17.964 0 0 1 14.279-1.606 19.611 19.611 0 0 1 7.282 4.357c-5.858 3.274-11.884 6.2-18.506 6.291a40.228 40.228 0 0 0 22.439-5.317C33.4 9.155 41.332 3.755 50.371 3.624z"/></svg>