<svg xmlns="http://www.w3.org/2000/svg" xmlns:xlink="http://www.w3.org/1999/xlink" width="64.438" height="58.314" viewBox="0 0 64.438 58.314"><defs><linearGradient id="a" x1="0.273" y1="1.225" x2="0.735" y2="-0.252" gradientUnits="objectBoundingBox"><stop offset="0" stop-color="#e4eeec"/><stop offset="1" stop-color="#3aad9e"/></linearGradient><linearGradient id="b" y1="0.5" x2="1" y2="0.5" gradientUnits="objectBoundingBox"><stop offset="0" stop-color="#fff" stop-opacity="0"/><stop offset="0.035" stop-color="#f6ebf1" stop-opacity="0.027"/><stop offset="0.127" stop-color="#e2bbd0" stop-opacity="0.102"/><stop offset="0.224" stop-color="#cf91b3" stop-opacity="0.18"/><stop offset="0.325" stop-color="#c06e9a" stop-opacity="0.259"/><stop offset="0.431" stop-color="#b45186" stop-opacity="0.345"/><stop offset="0.543" stop-color="#aa3b76" stop-opacity="0.435"/><stop offset="0.666" stop-color="#a32b6b" stop-opacity="0.533"/><stop offset="0.805" stop-color="#9f2265" stop-opacity="0.643"/><stop offset="1" stop-color="#9e1f63" stop-opacity="0.8"/></linearGradient><linearGradient id="c" x1="-0.198" x2="1.001" xlink:href="#b"/><linearGradient id="d" y1="0.5" x2="1" y2="0.5" gradientUnits="objectBoundingBox"><stop offset="0.108" stop-color="#126666"/><stop offset="0.503" stop-color="#4bbfae"/><stop offset="0.576" stop-color="#47b9a9"/><stop offset="0.676" stop-color="#3ca79b"/><stop offset="0.79" stop-color="#2a8b84"/><stop offset="0.908" stop-color="#126666"/></linearGradient><radialGradient id="e" cx="5.351" cy="5.351" r="5.351" gradientUnits="userSpaceOnUse"><stop offset="0.222" stop-color="#3aad9e"/><stop offset="1" stop-color="#126666"/></radialGradient><radialGradient id="f" cx="3.951" cy="3.951" r="3.951" xlink:href="#e"/><radialGradient id="g" cx="416.675" cy="134.681" r="6.167" gradientTransform="translate(-67.052 -22.331) scale(1.251 1.251)" gradientUnits="userSpaceOnUse"><stop offset="0" stop-color="#3aad9e"/><stop offset="1" stop-color="#123f66"/></radialGradient></defs><path d="M69.763,152.96c0-6.519-14.425-11.8-32.219-11.8s-32.219,5.285-32.219,11.8a4.418,4.418,0,0,0,.037.53H5.325V160.6c0,6.519,14.425,11.8,32.219,11.8s32.219-5.285,32.219-11.8v-7.108h-.037A4.415,4.415,0,0,0,69.763,152.96Z" transform="translate(-5.325 -114.087)" fill="#4bbfae"/><ellipse cx="32.219" cy="11.803" rx="32.219" ry="11.803" transform="translate(0 27.07)" fill="url(#a)"/><path d="M150.663,208.066V215.7c17.794,0,32.219-5.285,32.219-11.8v-7.108h-.037C182.087,203.065,167.971,208.066,150.663,208.066Z" transform="translate(-118.444 -157.39)" opacity="0.4" fill="url(#b)"/><path d="M295.836,196.727v.015s0-.01,0-.015Z" transform="translate(-231.434 -157.338)" opacity="0.4" fill="url(#c)"/><path d="M59.571,142.865a14.112,14.112,0,0,1-7.663,1.9,14.112,14.112,0,0,1-7.663-1.9v-8.278a7.663,7.663,0,1,1,15.326,0Z" transform="translate(-35.617 -103.009)" fill="url(#d)"/><ellipse cx="2.168" cy="2.168" rx="2.168" ry="2.168" transform="translate(14.123 29.329)" fill="#e4eeec"/><path d="M42.921,98.716A5.33,5.33,0,0,1,36.082,102l2.53,7.4a7.628,7.628,0,0,1,8.624-4.244Z" transform="translate(-29.264 -81.055)" fill="#4bbfae"/><ellipse cx="5.351" cy="5.351" rx="5.351" ry="5.351" transform="translate(3.255 10.555)" fill="url(#e)"/><ellipse cx="3.951" cy="3.951" rx="3.951" ry="3.951" transform="translate(18.027 0)" fill="url(#f)"/><path d="M61.011,41.629,53.5,47.588a5.356,5.356,0,0,1,3.2,3.946l7.049-7.166A3.934,3.934,0,0,1,61.011,41.629Z" transform="translate(-42.824 -36.623)" fill="#4bbfae"/><ellipse cx="1.755" cy="1.755" rx="1.755" ry="1.755" transform="translate(6.873 14.152)" fill="#e4eeec"/><path d="M115.905,37.74a3.933,3.933,0,0,1-1.793,3.121l7.689,4.082,1.3-2.109-7.2-5.094Z" transform="translate(-89.996 -33.596)" fill="#4bbfae"/><ellipse cx="0.883" cy="0.883" rx="0.883" ry="0.883" transform="translate(21.096 3.068)" fill="#e4eeec"/><g transform="translate(26.392 39.089)"><path d="M124.378,206.746l6.222,3.592v-3.513l-6.222-3.592Zm6.222.079v3.513l3.111-1.742v-3.513Z" transform="translate(-124.378 -201.491)" fill="#7bd6c7"/><path d="M124.379,197.115l6.222,3.592,3.111-1.742-6.222-3.592Z" transform="translate(-124.379 -195.373)" fill="#7bd6c7"/><g transform="translate(0)"><path d="M133.712,198.965l-3.111,1.742-6.222-3.592,3.111-1.742Z" transform="translate(-124.379 -195.373)" fill="#ec297b" opacity="0.2"/><path d="M152.445,216.832v-3.513l3.111-1.742v3.513Z" transform="translate(-146.223 -207.985)" fill="#471a37" opacity="0.4"/></g></g><g transform="translate(31.502 5.919)"><path d="M154.241,45.748l-6.813,3.934v9.18l6.813,3.934,6.813-3.934v-9.18Z" transform="translate(-147.428 -45.748)" fill="url(#g)"/><path d="M178.161,76.606v-9.18l6.813-3.934v9.18Z" transform="translate(-171.348 -59.558)" fill="#471a37" opacity="0.4"/><path d="M161.054,49.682l-6.813,3.934-6.813-3.934,6.813-3.934Z" transform="translate(-147.428 -45.748)" fill="#f073ab" opacity="0.3"/></g><g transform="translate(45.128 25.399)"><path d="M217.766,136.18l-4.436-2.561-4.436,2.561v9.048l4.436,2.561,4.436-2.561V136.18Z" transform="translate(-208.894 -133.619)" fill="#7bd6c7"/><path d="M228.9,156.781v-9.048l4.436-2.561v9.048Z" transform="translate(-224.467 -142.611)" fill="#471a37" opacity="0.4"/><path d="M217.766,136.18l-4.436,2.561-4.436-2.561,4.436-2.561Z" transform="translate(-208.894 -133.619)" fill="#f073ab" opacity="0.3"/></g></svg>