<svg xmlns="http://www.w3.org/2000/svg" xmlns:xlink="http://www.w3.org/1999/xlink" width="61.764" height="69" viewBox="0 0 61.764 69"><defs><radialGradient id="a" cx="50.337" cy="34.164" r="76.058" gradientTransform="translate(8.66 8.504) scale(0.727 0.727)" gradientUnits="userSpaceOnUse"><stop offset="0" stop-color="#e4eeec"/><stop offset="0.103" stop-color="#e0ecea"/><stop offset="0.212" stop-color="#d3e8e4"/><stop offset="0.322" stop-color="#bee0db"/><stop offset="0.435" stop-color="#a1d4cd"/><stop offset="0.549" stop-color="#7bc6bc"/><stop offset="0.662" stop-color="#4db4a7"/><stop offset="0.704" stop-color="#3aad9e"/></radialGradient><linearGradient id="b" x1="0.098" y1="0.917" x2="0.522" y2="0.18" gradientUnits="objectBoundingBox"><stop offset="0.005" stop-color="#ef2369" stop-opacity="0.4"/><stop offset="1" stop-color="#e4eeec" stop-opacity="0"/></linearGradient><linearGradient id="c" x1="-0.028" y1="0.398" x2="0.832" y2="0.626" gradientUnits="objectBoundingBox"><stop offset="0" stop-color="#8a1d42"/><stop offset="0.168" stop-color="#ef2369"/><stop offset="0.219" stop-color="#db2261"/><stop offset="0.322" stop-color="#a81f4e"/><stop offset="0.378" stop-color="#8a1d42"/><stop offset="0.458" stop-color="#8e1d44"/><stop offset="0.537" stop-color="#9a1e48"/><stop offset="0.616" stop-color="#ae1f50"/><stop offset="0.694" stop-color="#c9215a"/><stop offset="0.771" stop-color="#ed2368"/><stop offset="0.776" stop-color="#ef2369"/><stop offset="0.823" stop-color="#eb236a"/><stop offset="0.873" stop-color="#de246d"/><stop offset="0.924" stop-color="#c92571"/><stop offset="0.976" stop-color="#ab2778"/><stop offset="1" stop-color="#9b287b"/></linearGradient></defs><g transform="translate(0 0)"><path d="M71.889,21.006c.024-.377.047-.753.047-1.153a16.841,16.841,0,0,0-31.752-7.838A9.827,9.827,0,0,0,27.238,23.29a12.635,12.635,0,0,0,4,24.62H66.334a14.024,14.024,0,0,0,5.555-26.9Z" transform="translate(-18.6 -3)" fill="url(#a)"/><path d="M114.61,87.831l-11.11-4.1L105.053,49.3a2.993,2.993,0,0,1,4-2.683l23.185,8.426a3,3,0,0,1,1.459,4.5L114.61,87.831Z" transform="translate(-83.516 -36.213)" fill="url(#b)"/><g transform="translate(15.572 46.384)"><path d="M95.573,201.085c3.248,1.2,6.19,3.248,5.578,5.131l-.024.047-1.53,4.143a1.7,1.7,0,0,1-.965.989,3.647,3.647,0,0,1-1.295.282l-3.907,8.144a4.487,4.487,0,0,1-8.262.235,4.571,4.571,0,0,1-.141-3.437l2.283-8.638c-1.059-1.059-1.106-1.907-.894-2.448l1.553-4.213c.259-.636.989-1.342,3.036-1.247A16.608,16.608,0,0,1,95.573,201.085Z" transform="translate(-84.759 -200.064)" fill="url(#c)"/></g><path d="M109.5,205.152c3.342,1.224,4.9,2.73,5.108,3.272-.494.282-2.66.4-6-.824s-4.9-2.73-5.108-3.272C104.041,204.07,106.183,203.929,109.5,205.152Z" transform="translate(-83.516 -156.806)" fill="#fff"/><path d="M103.22,225.085a1.372,1.372,0,0,1-1.177.918,16.173,16.173,0,0,1-6.214-1.224,17.084,17.084,0,0,1-5.484-3.036,1.385,1.385,0,0,1-.33-1.483l.824-2.26a8.8,8.8,0,0,0,.659.588,20.3,20.3,0,0,0,5.531,2.966,21.054,21.054,0,0,0,6.12,1.342h.894Z" transform="translate(-73.139 -167.394)" fill="#ee266a"/><path d="M101.789,252.1l-1.389,6,1.436.541,2.825-5.484Z" transform="translate(-81.146 -193.468)" fill="#fff"/></g></svg>