<svg xmlns="http://www.w3.org/2000/svg" xmlns:xlink="http://www.w3.org/1999/xlink" width="64.611" height="59.926" viewBox="0 0 64.611 59.926"><defs><linearGradient id="a" x1="0.623" y1="1.029" x2="0.09" y2="0.22" gradientUnits="objectBoundingBox"><stop offset="0" stop-color="#b3dbd5"/><stop offset="0.513" stop-color="#e4eeec"/><stop offset="0.686" stop-color="#e2edeb"/><stop offset="0.781" stop-color="#daeae7"/><stop offset="0.858" stop-color="#cce5e1"/><stop offset="0.924" stop-color="#b8ddd8"/><stop offset="0.984" stop-color="#9fd3cc"/><stop offset="1" stop-color="#97d0c8"/></linearGradient><radialGradient id="b" cx="18.546" cy="612.485" r="5.327" gradientTransform="translate(-3.495 -98.683) scale(1.251 1.251)" gradientUnits="userSpaceOnUse"><stop offset="0" stop-color="#3aad9e"/><stop offset="1" stop-color="#123f66"/></radialGradient><radialGradient id="c" cx="388.868" cy="234.002" r="10.414" gradientTransform="translate(-63.142 -38.76) scale(1.251 1.251)" xlink:href="#b"/></defs><path d="M65.9,123.739l-28.919-3.114L31.092,109.3,41.973,77.927Z" transform="translate(-25.208 -64.096)" fill="url(#a)"/><path d="M203.712,122.3l-11.5,6.642v15.5l11.5,6.642,11.5-6.642v-15.5Z" transform="translate(-150.606 -98.635)" fill="#7bd6c7"/><path d="M244.1,174.41v-15.5l11.5-6.642v15.5Z" transform="translate(-190.998 -121.956)" fill="#471a37" opacity="0.4"/><path d="M215.216,128.945l-11.5,6.642-11.5-6.642,11.5-6.642Z" transform="translate(-150.606 -98.635)" fill="#123f66" opacity="0.3"/><path d="M91.682,123.057l-11.5,6.642v15.5l11.5,6.642,11.5-6.642V129.7Z" transform="translate(-63.412 -99.222)" fill="#7bd6c7"/><path d="M132.074,175.164v-15.5l11.5-6.642v15.5Z" transform="translate(-103.804 -122.542)" fill="#471a37" opacity="0.4"/><path d="M103.186,129.7l-11.5,6.642-11.5-6.642,11.5-6.642Z" transform="translate(-63.412 -99.222)" fill="#123f66" opacity="0.3"/><path d="M147.7,154.73l-11.5,6.642v15.5l11.5,6.642,11.5-6.642v-15.5Z" transform="translate(-107.009 -123.873)" fill="#7bd6c7"/><path d="M188.088,206.837v-15.5l11.5-6.642v15.5Z" transform="translate(-147.401 -147.194)" fill="#471a37" opacity="0.4"/><path d="M159.2,161.372l-11.5,6.642-11.5-6.642,11.5-6.642Z" transform="translate(-107.009 -123.873)" fill="#123f66" opacity="0.3"/><g transform="translate(0 45.203)"><path d="M10.433,219.444l-5.884,3.4v7.929l5.884,3.4,5.884-3.4v-7.929Z" transform="translate(-4.549 -219.444)" fill="url(#b)"/><path d="M31.092,246.095v-7.929l5.884-3.4V242.7Z" transform="translate(-25.208 -231.372)" fill="#471a37" opacity="0.4"/><path d="M16.317,222.841l-5.884,3.4-5.884-3.4,5.884-3.4Z" transform="translate(-4.549 -219.444)" fill="#f073ab" opacity="0.3"/></g><g transform="translate(16.765 0)"><path d="M147.7,15.538l-11.5,6.642v15.5l11.5,6.642,11.5-6.642V22.18Z" transform="translate(-123.774 -15.538)" fill="#7bd6c7"/><path d="M188.089,67.645v-15.5l11.5-6.642V61Z" transform="translate(-164.167 -38.859)" fill="#471a37" opacity="0.4"/><path d="M159.2,22.18l-11.5,6.642-11.5-6.642,11.5-6.642Z" transform="translate(-123.774 -15.538)" fill="#123f66" opacity="0.3"/><path d="M203.712,47.21l-11.5,6.642v15.5L203.711,76l11.5-6.642v-15.5Z" transform="translate(-167.372 -40.189)" fill="#7bd6c7"/><path d="M244.1,99.317v-15.5l11.5-6.642v15.5Z" transform="translate(-207.763 -63.51)" fill="#471a37" opacity="0.4"/><path d="M215.216,53.852l-11.5,6.642-11.5-6.642,11.5-6.642Z" transform="translate(-167.372 -40.189)" fill="#123f66" opacity="0.3"/><path d="M91.682,47.965l-11.5,6.642v15.5l11.5,6.642,11.5-6.642v-15.5Z" transform="translate(-80.177 -40.776)" fill="#7bd6c7"/><path d="M132.074,100.071v-15.5l11.5-6.642v15.5Z" transform="translate(-120.569 -64.096)" fill="#471a37" opacity="0.4"/><path d="M103.186,54.607l-11.5,6.642-11.5-6.642,11.5-6.642Z" transform="translate(-80.177 -40.776)" fill="#123f66" opacity="0.3"/><path d="M147.7,79.637l-11.5,6.642v15.5l11.5,6.642,11.5-6.642v-15.5Z" transform="translate(-123.774 -65.427)" fill="url(#c)"/><path d="M188.089,131.744v-15.5l11.5-6.642v15.5Z" transform="translate(-164.167 -88.748)" fill="#471a37" opacity="0.4"/><path d="M159.2,86.279l-11.5,6.642-11.5-6.642,11.5-6.642Z" transform="translate(-123.774 -65.427)" fill="#123f66" opacity="0.3"/></g></svg>