<svg xmlns="http://www.w3.org/2000/svg" xmlns:xlink="http://www.w3.org/1999/xlink" width="66.128" height="41.172" viewBox="0 0 66.128 41.172"><defs><radialGradient id="a" cx="58.646" cy="60.147" r="21.92" gradientTransform="translate(0.201 0.104) scale(0.955 0.955)" gradientUnits="userSpaceOnUse"><stop offset="0" stop-color="#e4eeec"/><stop offset="1" stop-color="#3aad9e"/></radialGradient></defs><path d="M96.636,75.1c-.038-.195-.088-.385-.131-.578-.112-.5-.234-.994-.381-1.479-.041-.136-.087-.27-.131-.4-.181-.556-.378-1.1-.6-1.64-.023-.055-.047-.111-.07-.166A21.534,21.534,0,0,0,83.976,59.518L83.94,59.5q-.9-.377-1.826-.67c-.071-.022-.141-.046-.213-.068q-.863-.262-1.746-.45c-.1-.022-.2-.049-.307-.069-.591-.119-1.192-.207-1.8-.275-.094-.01-.187-.029-.281-.038q-1.054-.105-2.114-.107c-.117,0-.232.014-.349.016-.559.009-1.113.033-1.661.084-.36.034-.713.092-1.068.143-.293.042-.588.08-.877.134-.41.077-.813.173-1.215.274-.218.054-.437.107-.653.168q-.651.185-1.289.412c-.163.057-.324.117-.485.178q-.686.259-1.352.565c-.1.046-.2.095-.293.142A21.336,21.336,0,0,0,54.656,75.383a1.1,1.1,0,0,1-.118.322A21.232,21.232,0,0,0,66.763,98.732L71.62,86.387a8.2,8.2,0,1,1,8.027,0L84.5,98.732A21.383,21.383,0,0,0,96.636,75.1Zm-22-13.255A17.246,17.246,0,0,0,59.543,75.547a1.118,1.118,0,0,1-1.093.893,1.154,1.154,0,0,1-.227-.023,1.118,1.118,0,0,1-.87-1.32A19.477,19.477,0,0,1,74.4,59.617a1.138,1.138,0,0,1,1.231.992A1.119,1.119,0,0,1,74.635,61.84Z" transform="translate(-42.578 -57.826)" fill="url(#a)"/><path d="M13.057,164.343a11.348,11.348,0,0,1-1.77-22.559,23.75,23.75,0,0,0-.18,2.8,23.491,23.491,0,0,0,10.661,19.763Zm43.411,0H47.742a23.439,23.439,0,0,0,10.48-22.562,11.348,11.348,0,0,1-1.755,22.562Z" transform="translate(-1.699 -123.17)" fill="#126666"/></svg>