<svg xmlns="http://www.w3.org/2000/svg" xmlns:xlink="http://www.w3.org/1999/xlink" width="65.512" height="39.281" viewBox="0 0 65.512 39.281"><defs><linearGradient id="a" x1="0.933" y1="0.835" x2="0.064" y2="0.163" gradientUnits="objectBoundingBox"><stop offset="0" stop-color="#3aad9e"/><stop offset="0.06" stop-color="#65bdb2"/><stop offset="0.125" stop-color="#8bccc3"/><stop offset="0.193" stop-color="#abd8d2"/><stop offset="0.262" stop-color="#c4e2dd"/><stop offset="0.335" stop-color="#d6e9e6"/><stop offset="0.412" stop-color="#e1edea"/><stop offset="0.503" stop-color="#e4eeec"/><stop offset="0.54" stop-color="#cce5e1"/><stop offset="0.617" stop-color="#9fd4cd"/><stop offset="0.694" stop-color="#7bc6bc"/><stop offset="0.771" stop-color="#5ebbaf"/><stop offset="0.848" stop-color="#4ab3a5"/><stop offset="0.924" stop-color="#3eafa0"/><stop offset="1" stop-color="#3aad9e"/></linearGradient><radialGradient id="b" cx="1353.401" cy="-2406.013" r="0.1" gradientTransform="translate(-0.007 0.023)" gradientUnits="userSpaceOnUse"><stop offset="0" stop-color="#3aad9e"/><stop offset="1" stop-color="#123f66"/></radialGradient><radialGradient id="c" cx="1333.444" cy="-2382.937" r="0.199" gradientTransform="translate(-0.007 0.025)" xlink:href="#b"/><radialGradient id="d" cx="1377.475" cy="-2391.068" r="0.211" xlink:href="#b"/></defs><path d="M56.71,89.491c-3.3-5.189-10.774-15.637-17.384-15.637-8.793,0-12.733,8.279-12.733,18.491s3.94,18.491,12.733,18.491S58.437,92.345,58.437,92.345L56.71,89.491S46.9,105.316,40.018,105.316s-8.642-8.079-8.642-12.97,1.756-12.97,8.642-12.97c6.247,0,13.678,10.99,14.965,12.97l1.928,3.245c3.3,5.189,10.505,15.246,17.115,15.246,8.793,0,12.733-8.279,12.733-18.491S82.82,73.854,74.026,73.854,54.915,92.345,54.915,92.345l1.93,2.691s9.6-15.662,16.49-15.662,8.642,8.079,8.642,12.97-1.756,12.971-8.642,12.971c-6.247,0-13.678-10.99-14.965-12.971l-1.66-2.854Z" transform="translate(-21.247 -71.554)" fill="url(#a)"/><ellipse cx="4.323" cy="4.323" rx="4.323" ry="4.323" transform="translate(24.444 23.559)" fill="url(#b)"/><ellipse cx="8.629" cy="8.629" rx="8.629" ry="8.629" transform="translate(44.491 0)" fill="url(#c)"/><ellipse cx="9.164" cy="9.164" rx="9.164" ry="9.164" transform="translate(0 8.63)" fill="url(#d)"/></svg>