<svg xmlns="http://www.w3.org/2000/svg" xmlns:xlink="http://www.w3.org/1999/xlink" width="68.518" height="53.125" viewBox="0 0 68.518 53.125"><defs><linearGradient id="a" x1="0.001" y1="0.5" x2="0.999" y2="0.5" gradientUnits="objectBoundingBox"><stop offset="0" stop-color="#126666"/><stop offset="0.5" stop-color="#4bbfae"/><stop offset="1" stop-color="#126666"/></linearGradient><linearGradient id="b" x1="0.001" y1="0.5" x2="1" y2="0.5" xlink:href="#a"/><linearGradient id="c" x1="0.001" y1="0.499" x2="1" y2="0.499" xlink:href="#a"/><linearGradient id="d" x1="0.001" y1="0.499" x2="1" y2="0.499" xlink:href="#a"/><linearGradient id="e" x1="0.499" y1="1.002" x2="0.499" y2="-0.001" gradientUnits="objectBoundingBox"><stop offset="0" stop-color="#ef2369"/><stop offset="0.102" stop-color="#e9236a"/><stop offset="0.24" stop-color="#d7246e"/><stop offset="0.399" stop-color="#bb2674"/><stop offset="0.54" stop-color="#9b277b"/><stop offset="1" stop-color="#ef2369"/></linearGradient><linearGradient id="f" x1="0.5" y1="1.002" x2="0.5" y2="-0.001" xlink:href="#e"/><linearGradient id="g" x1="0.498" y1="1.002" x2="0.498" y2="-0.001" xlink:href="#e"/><linearGradient id="h" x1="0.502" y1="1.002" x2="0.502" y2="-0.001" xlink:href="#e"/><linearGradient id="i" x1="0.498" y1="1.002" x2="0.498" y2="-0.001" xlink:href="#e"/><linearGradient id="j" x1="0.502" y1="1.002" x2="0.502" y2="-0.001" xlink:href="#e"/><linearGradient id="k" x1="0.499" y1="1.002" x2="0.499" y2="-0.001" xlink:href="#e"/><linearGradient id="l" x1="0.499" y1="0.998" x2="0.499" y2="-0.001" xlink:href="#e"/><linearGradient id="m" x1="0.5" y1="0.999" x2="0.5" y2="-0.001" xlink:href="#e"/><linearGradient id="n" x1="0.5" y1="1.001" x2="0.5" y2="-0.003" xlink:href="#e"/></defs><g transform="translate(0 0)"><path d="M45.2,86.5h2.283v29.563H45.2Zm47.052,0h2.283v29.563H92.252Z" transform="translate(-35.479 -74.708)" fill="#126666"/><ellipse cx="5.084" cy="5.084" rx="5.084" ry="5.084" transform="translate(52.677 21.49)" fill="#fff"/><path d="M23.666,36.4H6.271A2.074,2.074,0,0,0,4.2,38.471V47.6a2.074,2.074,0,0,0,2.071,2.071H23.666A2.074,2.074,0,0,0,25.737,47.6V38.448A2.085,2.085,0,0,0,23.666,36.4Z" transform="translate(-4.129 -36.4)" fill="url(#a)"/><path d="M222.966,36.4H205.571a2.074,2.074,0,0,0-2.071,2.071V47.6a2.074,2.074,0,0,0,2.071,2.071h17.394a2.074,2.074,0,0,0,2.071-2.071V38.448A2.054,2.054,0,0,0,222.966,36.4Z" transform="translate(-156.519 -36.4)" fill="url(#b)"/><path d="M23.366,205.6H5.971A2.074,2.074,0,0,0,3.9,207.671v9.156A2.074,2.074,0,0,0,5.971,218.9H23.366a2.074,2.074,0,0,0,2.071-2.071v-9.156A2.074,2.074,0,0,0,23.366,205.6Z" transform="translate(-3.9 -165.774)" fill="url(#c)"/><path d="M222.966,205.6H205.571a2.074,2.074,0,0,0-2.071,2.071v9.156a2.074,2.074,0,0,0,2.071,2.071h17.394a2.074,2.074,0,0,0,2.071-2.071v-9.156A2.059,2.059,0,0,0,222.966,205.6Z" transform="translate(-156.519 -165.774)" fill="url(#d)"/><path d="M200.683,144.6h-1.6L198,146.883h1.577Z" transform="translate(-152.313 -119.132)" fill="url(#e)"/><path d="M212.877,144.6h-1.671l-1.106,2.283h1.671Z" transform="translate(-161.565 -119.132)" fill="url(#f)"/><path d="M149.4,146.883h1.577l1.106-2.283h-1.6Z" transform="translate(-115.153 -119.132)" fill="url(#g)"/><path d="M161.5,146.883h1.6l1.083-2.283h-1.577Z" transform="translate(-124.405 -119.132)" fill="url(#h)"/><path d="M173.7,146.883h1.577l1.106-2.283h-1.6Z" transform="translate(-133.733 -119.132)" fill="url(#i)"/><path d="M137,146.883h1.648l1.083-2.283h-1.624Z" transform="translate(-105.671 -119.132)" fill="url(#j)"/><path d="M185.8,146.883h1.6l1.106-2.283h-1.6Z" transform="translate(-142.985 -119.132)" fill="url(#k)"/><path d="M230.232,136.786a5.859,5.859,0,0,0,0-11.439l-2.283-.047a5.851,5.851,0,0,0-4.708,4.543,5.269,5.269,0,0,0-.118,1.224v.188l-.424.894h.518a5.89,5.89,0,0,0,4.755,4.708Zm2.307-5.72a3.578,3.578,0,1,1-3.578-3.578A3.576,3.576,0,0,1,232.539,131.067Z" transform="translate(-171.2 -104.375)" fill="url(#l)"/><g transform="translate(2.754 18.359)"><path d="M44.01,121.508,43,123.6v2.471l-1.271.165-10,1.2v3.413H15.6V114.4H31.747v3.625L43,119.39v2.118Zm-18.524,2.283,1.6-2.095-2.236.024H23.367l1.459-4.025.565-1.577-.565.824-2.283,3.3-2.236,3.225h3.437l-.047.141-1.153,3.083-.659,1.765.659-.871,2.283-2.989.659-.8Z" transform="translate(-15.6 -114.4)" fill="url(#m)"/><path d="M38.013,132.292l1.153-3.083.047-.165H35.8l2.213-3.225,2.307-3.3.565-.824-.565,1.577L38.86,127.3h1.459l2.213-.024-1.6,2.095-.612.824-2.307,2.989-.659.871Z" transform="translate(-31.045 -119.982)" fill="#fff"/></g><ellipse cx="2.377" cy="2.377" rx="2.377" ry="2.377" transform="translate(55.384 24.314)" fill="url(#n)"/></g></svg>